<?xml version="1.0" encoding="UTF-8" standalone="no"?><!-- Generator: Gravit.io --><svg xmlns="http://www.w3.org/2000/svg" xmlns:xlink="http://www.w3.org/1999/xlink" style="isolation:isolate" viewBox="0 0 500 500" width="500pt" height="500pt"><defs><clipPath id="_clipPath_4L1HOsyfqDxLmfhlKjSiHt47jQdEuyUb"><rect width="500" height="500"/></clipPath></defs><g clip-path="url(#_clipPath_4L1HOsyfqDxLmfhlKjSiHt47jQdEuyUb)"><rect width="500" height="500" style="fill:rgb(58,72,86)"/><g><defs><filter id="DsktMI3yJGXxckMUDXDH3HcMvgelkTED" x="-200%" y="-200%" width="400%" height="400%" filterUnits="objectBoundingBox" color-interpolation-filters="sRGB"><feGaussianBlur xmlns="http://www.w3.org/2000/svg" in="SourceGraphic" stdDeviation="21.46804531419514"/><feOffset xmlns="http://www.w3.org/2000/svg" dx="0" dy="0" result="pf_100_offsetBlur"/><feFlood xmlns="http://www.w3.org/2000/svg" flood-color="#32EAB4" flood-opacity="1"/><feComposite xmlns="http://www.w3.org/2000/svg" in2="pf_100_offsetBlur" operator="in" result="pf_100_dropShadow"/><feBlend xmlns="http://www.w3.org/2000/svg" in="SourceGraphic" in2="pf_100_dropShadow" mode="normal"/></filter></defs><g filter="url(#DsktMI3yJGXxckMUDXDH3HcMvgelkTED)"><path d=" M 307.997 395 L 394.997 395 L 394.997 250 L 394.997 250 L 394.997 250 C 394.997 193.981 349.517 148.5 293.497 148.5 C 237.478 148.5 191.997 193.981 191.997 250 L 191.997 250 C 191.997 217.989 217.986 192 249.997 192 C 282.008 192 307.997 217.989 307.997 250 L 307.997 350.47 L 307.997 395 Z " fill="rgb(50,234,180)"/></g><defs><filter id="KL2X8SselpgcQKr0ao5xINBp5MFx1agw" x="-200%" y="-200%" width="400%" height="400%" filterUnits="objectBoundingBox" color-interpolation-filters="sRGB"><feGaussianBlur xmlns="http://www.w3.org/2000/svg" in="SourceGraphic" stdDeviation="21.46804531419514"/><feOffset xmlns="http://www.w3.org/2000/svg" dx="0" dy="0" result="pf_100_offsetBlur"/><feFlood xmlns="http://www.w3.org/2000/svg" flood-color="#59ABE3" flood-opacity="1"/><feComposite xmlns="http://www.w3.org/2000/svg" in2="pf_100_offsetBlur" operator="in" result="pf_100_dropShadow"/><feBlend xmlns="http://www.w3.org/2000/svg" in="SourceGraphic" in2="pf_100_dropShadow" mode="normal"/></filter></defs><g filter="url(#KL2X8SselpgcQKr0ao5xINBp5MFx1agw)"><path d=" M 394.997 250 C 394.292 170.575 329.593 105 250.003 105 C 169.975 105 105.003 169.972 105.003 250 L 105.003 395 L 192.003 395 L 192.003 250 C 192.003 193.981 237.483 148.5 293.503 148.5 C 349.085 148.5 394.291 194.584 394.997 250 L 394.997 250 Z " fill="rgb(89,171,227)"/></g></g></g></svg>